<svg xmlns="http://www.w3.org/2000/svg" width="70" height="80.206" viewBox="0 0 70 80.206"><defs><style>.a{fill:#ffd3c9;}.b{fill:none;stroke:#003d5c;stroke-linecap:round;stroke-linejoin:round;stroke-width:3px;}</style></defs><circle class="a" cx="35" cy="35" r="35"/><path class="b" d="M30.49,33.66C29.75,35.45,29.21,37.53,28,39s-4.6,4.63-4.6,7.46,1.17,2.83,0,4.25-2.65.75-3.83,3.59,0,1.94,0,4.78,2.11,8.14.94,9.56-.63.49-1.81,3.32-2.35,2.84-2.35,0,0-2.83-1.17-1.42,0,2.84-3.53,4.26-5.87,2.83-7,0a20.33,20.33,0,0,1-1.88-8.08c0-2.83-1.37-6,.94-9.56,1.87-2.86,5.38-3.36,6.55-4.78S15.63,49,16.8,47.55s3.12-4,3.12-5.39,2.26-3.7,3.44-5.12,1.87-1.91,2.43-3.38c1-2.64,1.07-2.85,2.25-4.27s2.33-3.36,4.68-4.78,4.29-4.93,7.49-5.73c2.65-.67,8.86,1.1,7.68,1.1h5.87c1.18,0,3.53,1.42,3.53,2.84s-.93,1.33-2.1,2.75-1.43-1.34-3.77-1.34-1.18,0-3.53,1.42-1.83,2.32-3,3.74-5.22,1-6.4-.44-1.55-1-3.9.44S31.66,30.82,30.49,33.66Z" transform="translate(0.21 2.27)"/></svg>