<svg xmlns="http://www.w3.org/2000/svg" width="70" height="79" viewBox="0 0 70 79"><defs><style>.a{fill:#ffd3c9;}.b{fill:none;stroke:#003d5c;stroke-linecap:round;stroke-linejoin:round;stroke-miterlimit:10;stroke-width:3px;}</style></defs><circle class="a" cx="35" cy="35" r="35"/><g transform="translate(1.62 5)"><path class="b" d="M8.5,30.48V69.5a3.009,3.009,0,0,0,3,3h34a3.009,3.009,0,0,0,3-3v-45a3.009,3.009,0,0,0-3-3H17.81"/><path class="b" d="M8.5,30.48h6.31a3.009,3.009,0,0,0,3-3V21.5Z"/><line class="b" x2="13.5" transform="translate(28 47.5)"/><line class="b" x2="13.5" transform="translate(28 56)"/><line class="b" x2="13.5" transform="translate(28 64.5)"/><path class="b" d="M20.5,51.26c-2-1.52-6-.76-6,2.28,0,2.96,4,1.52,6,3.04s-1,6.92-6,3.8"/><line class="b" y2="2.5" transform="translate(18.37 47.5)"/><line class="b" y2="2.5" transform="translate(18.37 61.5)"/><path class="b" d="M31.71,42.93l1.12-3.31s6.34-.81,6.68-4.39-1.76-5.03-2.19-8.87c-1.35,3.98-4.45,2.92-6.13,5.31-2.03,2.9-.47,6.49.86,7.68l2.44-4.85"/></g></svg>