<svg xmlns="http://www.w3.org/2000/svg" width="18" height="18" viewBox="0 0 18 18"><defs><style>.a{fill:#fff;fill-rule:evenodd;}</style></defs><path class="a" d="M9,0C6.556,0,6.249.01,5.289.054A6.613,6.613,0,0,0,3.1.472,4.411,4.411,0,0,0,1.51,1.51,4.411,4.411,0,0,0,.472,3.1,6.613,6.613,0,0,0,.054,5.289C.01,6.249,0,6.556,0,9s.011,2.751.054,3.711A6.613,6.613,0,0,0,.472,14.9,4.411,4.411,0,0,0,1.51,16.49,4.411,4.411,0,0,0,3.1,17.528a6.613,6.613,0,0,0,2.185.418C6.249,17.99,6.556,18,9,18s2.751-.01,3.711-.054a6.613,6.613,0,0,0,2.185-.418A4.6,4.6,0,0,0,17.528,14.9a6.613,6.613,0,0,0,.418-2.185C17.99,11.751,18,11.444,18,9s-.01-2.751-.054-3.711A6.613,6.613,0,0,0,17.528,3.1,4.411,4.411,0,0,0,16.49,1.51,4.411,4.411,0,0,0,14.9.472,6.613,6.613,0,0,0,12.711.054C11.751.01,11.444,0,9,0ZM9,1.622c2.4,0,2.688.009,3.637.053a4.979,4.979,0,0,1,1.671.31,2.786,2.786,0,0,1,1.035.673,2.786,2.786,0,0,1,.673,1.035,4.979,4.979,0,0,1,.31,1.671c.043.949.052,1.234.052,3.637s-.009,2.688-.052,3.637a4.974,4.974,0,0,1-.31,1.671,2.979,2.979,0,0,1-1.708,1.708,4.979,4.979,0,0,1-1.671.31c-.949.043-1.233.052-3.637.052s-2.688-.009-3.637-.052a4.979,4.979,0,0,1-1.671-.31,2.786,2.786,0,0,1-1.035-.673,2.785,2.785,0,0,1-.673-1.035,4.974,4.974,0,0,1-.31-1.671C1.631,11.688,1.622,11.4,1.622,9s.009-2.688.053-3.637a4.979,4.979,0,0,1,.31-1.671,2.786,2.786,0,0,1,.673-1.035,2.786,2.786,0,0,1,1.035-.673,4.979,4.979,0,0,1,1.671-.31C6.312,1.631,6.6,1.622,9,1.622ZM9,4.378A4.622,4.622,0,1,0,13.622,9,4.621,4.621,0,0,0,9,4.378ZM9,12a3,3,0,1,1,3-3A3,3,0,0,1,9,12Zm5.884-7.8a1.08,1.08,0,1,1-1.08-1.08A1.08,1.08,0,0,1,14.884,4.2Z" transform="translate(0 0)"/></svg>