<svg xmlns="http://www.w3.org/2000/svg" width="27.52" height="23.281" viewBox="0 0 27.52 23.281">
    <defs><style>.a{fill:#fff;stroke:#003d5c;stroke-linecap:round;stroke-linejoin:round;stroke-width:2px;}</style></defs>
    <g transform="translate(1.093 1.125)">
        <path class="a" d="M9.915,7.379a16.93,16.93,0,0,1,6.279-2.9A5.206,5.206,0,0,0,16.738,6.1c.9,1.911,1.306,1.965,2.735.947l4.391-3.124c.5-.84-.488-1.786-1.03-2.161-4.779-3.3-10.4-1.586-15.475,2.026S-1.177,12.147.374,17.744c.175.634.746,1.878,1.7,1.681L6.468,16.3c1.429-1.017,1.512-1.418,0-2.893A5.193,5.193,0,0,0,5.115,12.36,16.937,16.937,0,0,1,9.915,7.379Z" transform="matrix(0.998, -0.07, 0.07, 0.998, 0, 1.674)"/>
    </g>
</svg>
