<svg xmlns="http://www.w3.org/2000/svg" width="19" height="13.75" viewBox="0 0 19 13.75"><defs><style>.a{fill:#fff;fill-rule:evenodd;}</style></defs><path class="a" d="M7.538,9.411V3.918l5.134,2.756ZM18.81,2.966a4.3,4.3,0,0,0-.755-1.94A2.674,2.674,0,0,0,16.151.2C13.492,0,9.5,0,9.5,0H9.5S5.508,0,2.849.2a2.674,2.674,0,0,0-1.9.828A4.3,4.3,0,0,0,.19,2.966,30.421,30.421,0,0,0,0,6.13V7.613a30.4,30.4,0,0,0,.19,3.164,4.3,4.3,0,0,0,.755,1.94,3.167,3.167,0,0,0,2.1.836c1.52.15,6.46.2,6.46.2s3.992-.006,6.651-.2a2.677,2.677,0,0,0,1.9-.828,4.3,4.3,0,0,0,.755-1.94A30.4,30.4,0,0,0,19,7.613V6.13a30.421,30.421,0,0,0-.19-3.164Z"/></svg>