<svg xmlns="http://www.w3.org/2000/svg" width="18" height="16.364" viewBox="0 0 18 16.364"><defs><style>.a{fill:#fff;fill-rule:evenodd;}</style></defs><path class="a" d="M18,16.364H14.022V10.611c0-1.505-.622-2.533-1.991-2.533a2.008,2.008,0,0,0-1.9,1.362,2.523,2.523,0,0,0-.086.908v6.016H6.1s.051-10.19,0-11.116h3.941V6.992c.233-.763,1.492-1.852,3.5-1.852,2.493,0,4.453,1.6,4.453,5.042v6.181ZM2.119,3.857H2.093A1.939,1.939,0,0,1,0,1.93,1.959,1.959,0,0,1,2.143,0,1.948,1.948,0,0,1,4.259,1.927a1.955,1.955,0,0,1-2.14,1.93ZM.454,5.247H3.962V16.364H.454V5.247Z"/></svg>