<svg xmlns="http://www.w3.org/2000/svg" width="19" height="16" viewBox="0 0 19 16"><defs><style>.a{fill:#fff;fill-rule:evenodd;}</style></defs><path class="a" d="M19,1.894a7.549,7.549,0,0,1-2.238.636A4.025,4.025,0,0,0,18.476.3,7.639,7.639,0,0,1,16,1.275,3.826,3.826,0,0,0,13.154,0a3.97,3.97,0,0,0-3.9,4.039,4.162,4.162,0,0,0,.1.92A10.939,10.939,0,0,1,1.322.737,4.147,4.147,0,0,0,.8,2.77,4.078,4.078,0,0,0,2.529,6.132a3.8,3.8,0,0,1-1.767-.5v.05a4.006,4.006,0,0,0,3.128,3.96,3.68,3.68,0,0,1-1.027.142,3.762,3.762,0,0,1-.734-.072,3.92,3.92,0,0,0,3.641,2.8A7.648,7.648,0,0,1,.93,14.242,7.757,7.757,0,0,1,0,14.187,10.774,10.774,0,0,0,5.976,16c7.171,0,11.091-6.154,11.091-11.492,0-.176,0-.351-.01-.523A8.049,8.049,0,0,0,19,1.894" transform="translate(0 0)"/></svg>