<svg xmlns="http://www.w3.org/2000/svg" width="70" height="80.29" viewBox="0 0 70 80.29"><defs><style>.a{fill:#ffd3c9;}.b{fill:none;stroke:#003d5c;stroke-linecap:round;stroke-linejoin:round;stroke-width:3px;}</style></defs><circle class="a" cx="35" cy="35" r="35"/><g transform="translate(-897.879 -1623)"><path class="b" d="M34.3,40.5c-5,6-15,40-15,40l3-13c-1-12-10.22-17.57-5-28,3-6,9.69-8.92,14-10,8-2,14.5-5.5,17-13,2.5-.5,32,52-15.5,52.5C9.63,69.24,3.3,53.47,4.3,42.5s12-31,12-31,6,14,14,18" transform="translate(895.799 1621.29)"/><line class="b" x1="4" y1="8" transform="translate(932.099 1691.79)"/><line class="b" x1="7.94" y2="2.12" transform="translate(926.099 1679.67)"/><line class="b" x1="9.94" y2="3.12" transform="translate(930.099 1668.67)"/></g></svg>